#!OML:ASF F:\VICON\USERDATA\INSTALL\rory3\rory3.ASF
:FULLY-SPECIFIED
:DEGREES
265
root -7.33181 17.7848 3.75688 -6.07363 -35.8117 1.94597
lowerback 11.9511 3.05237 1.81394
upperback 1.46758 4.25189 -0.238789
thorax -4.99724 2.04968 -1.94485
lowerneck -17.2729 3.46421 -8.61313
upperneck 41.0328 6.90672 3.41941
head 17.6341 1.78089 4.39734
rclavicle -8.89313e-014 -1.68967e-014
rhumerus -35.1468 -17.3123 -71.6988
rradius 31.6959
rwrist 3.78757
rhand -16.1591 10.3182
rfingers 7.12502
rthumb 10.0466 -19.422
lclavicle -8.89313e-014 -1.68967e-014
lhumerus -42.5906 28.583 65.7781
lradius 24.0247
lwrist -11.9535
lhand -22.1638 26.0299
lfingers 7.12502
lthumb 4.25062 55.9673
rfemur 1.68996 -1.56923 14.3609
rtibia 27.2634
rfoot -16.6313 -15.0262
rtoes -2.36987
lfemur -6.21747 -4.68412 -6.00212
ltibia 17.0503
lfoot 9.7913 11.8661
ltoes -12.0772
266
root -7.28883 17.7624 3.83859 -5.97055 -35.4215 1.77104
lowerback 11.9083 3.03456 1.93316
upperback 1.47765 4.24599 -0.18494
thorax -4.95867 2.04587 -1.95116
lowerneck -17.2434 3.42524 -8.70367
upperneck 40.9981 6.85401 3.48346
head 17.603 1.76028 4.43011
rclavicle -4.68138e-014 7.15625e-015
rhumerus -35.0478 -17.6104 -71.5697
rradius 31.6335
rwrist 3.86136
rhand -16.2044 10.2486
rfingers 7.12502
rthumb 10.003 -19.4937
lclavicle -4.68138e-014 7.15625e-015
lhumerus -42.5327 28.5702 65.9856
lradius 24.1571
lwrist -11.8235
lhand -22.5376 25.7735
lfingers 7.12502
lthumb 3.88968 55.7177
rfemur 1.85707 -1.51025 14.2787
rtibia 27.3894
rfoot -16.6224 -15.4488
rtoes -3.04434
lfemur -6.01192 -4.26987 -6.08453
ltibia 16.9713
lfoot 8.83351 11.1423
ltoes -14.7165
267
root -7.2464 17.7424 3.92316 -5.88054 -35.1188 1.62927
lowerback 11.8556 3.06026 2.05675
upperback 1.45703 4.29606 -0.181739
thorax -4.9401 2.06874 -2.02181
lowerneck -17.229 3.35534 -8.77809
upperneck 41.0321 6.7138 3.63741
head 17.6174 1.71443 4.49133
rclavicle 2.91716e-014 6.36111e-015
rhumerus -35.0998 -17.8999 -71.5369
rradius 31.6922
rwrist 3.86632
rhand -16.4606 10.2871
rfingers 7.12502
rthumb 9.75577 -19.4669
lclavicle 2.91716e-014 6.36111e-015
lhumerus -42.4359 28.3142 66.2453
lradius 24.3819
lwrist -11.573
lhand -22.5962 25.671
lfingers 7.12502
lthumb 3.83305 55.6163
rfemur 2.01981 -1.44301 14.164
rtibia 27.491
rfoot -16.6365 -15.8768
rtoes -3.45723
lfemur -5.77247 -3.86529 -6.21194
ltibia 16.8522
lfoot 7.74757 10.5494
ltoes -15.8081
268
root -7.20428 17.7297 4.01425 -5.89616 -34.8429 1.70003
lowerback 11.7429 3.08482 1.98574
upperback 1.4105 4.31873 -0.18549
thorax -4.93048 2.08161 -1.98422
lowerneck -17.1188 3.36749 -8.83001
upperneck 41.0608 6.71648 3.70272
head 17.5974 1.71884 4.5276
rclavicle 7.43579e-014 -1.78906e-015
rhumerus -35.1874 -17.8971 -71.5127
rradius 31.8246
rwrist 3.66907
rhand -16.4792 10.2524
rfingers 7.12502
rthumb 9.73787 -19.5025
lclavicle 7.43579e-014 -1.78906e-015
lhumerus -42.4635 28.2398 66.3875
lradius 24.5054
lwrist -11.4005
lhand -22.7156 25.3552
lfingers 7.12502
lthumb 3.71773 55.3025
rfemur 2.15893 -1.64442 13.7688
rtibia 27.608
rfoot -16.5547 -16.1849
rtoes -5.00555
lfemur -5.51067 -3.35517 -6.57941
ltibia 16.6417
lfoot 6.8972 10.133
ltoes -16.9981
269
root -7.16131 17.7184 4.10436 -5.85499 -34.5682 1.81155
lowerback 11.5756 3.13631 1.82075
upperback 1.36318 4.36454 -0.188408
thorax -4.89755 2.10822 -1.89334
lowerneck -17.1182 3.37231 -8.83472
upperneck 41.091 6.715 3.74781
head 17.611 1.7245 4.55153
rclavicle 4.01669e-014 7.95139e-015
rhumerus -35.2459 -17.9235 -71.4764
rradius 31.9831
rwrist 3.51012
rhand -16.327 10.3758
rfingers 7.12502
rthumb 9.88466 -19.3721
lclavicle 4.01669e-014 7.95139e-015
lhumerus -42.4735 28.2313 66.5413
lradius 24.6353
lwrist -11.3293
lhand -22.7213 25.2796
lfingers 7.12502
lthumb 3.71221 55.2271
rfemur 2.23674 -1.64821 13.3753
rtibia 27.7134
rfoot -16.4208 -16.5598
rtoes -6.14921
lfemur -5.36459 -2.99312 -6.9818
ltibia 16.4173
lfoot 6.29296 10.2372
ltoes -17.6686
270
root -7.11152 17.7079 4.19301 -5.81084 -34.1399 1.96111
lowerback 11.4009 3.14002 1.65551
upperback 1.37351 4.34449 -0.220928
thorax -4.80038 2.10345 -1.82038
lowerneck -17.2648 3.35787 -8.74013
upperneck 41.0875 6.70869 3.69139
head 17.6566 1.72869 4.51636
rclavicle -6.15611e-014 -8.15017e-015
rhumerus -35.1803 -17.999 -71.4693
rradius 32.0852
rwrist 3.57546
rhand -16.3199 10.3804
rfingers 7.12502
rthumb 9.89152 -19.3672
lclavicle -6.15611e-014 -8.15017e-015
lhumerus -42.3233 28.1185 66.8566
lradius 24.8984
lwrist -11.05
lhand -22.5158 25.4609
lfingers 7.12502
lthumb 3.91072 55.4048
rfemur 2.32889 -1.54009 12.9588
rtibia 27.8383
rfoot -16.4918 -16.9528
rtoes -6.34154
lfemur -5.33766 -2.80778 -7.44923
ltibia 16.1477
lfoot 5.99651 10.4483
ltoes -18.4841
271
root -7.05495 17.698 4.28126 -5.68985 -33.609 1.94664
lowerback 11.3284 3.10955 1.74035
upperback 1.3313 4.31241 -0.266108
thorax -4.79591 2.08595 -1.90692
lowerneck -17.2327 3.31459 -8.61559
upperneck 41.0388 6.61301 3.64967
head 17.6378 1.70931 4.45549
rclavicle -7.99239e-014 1.35174e-014
rhumerus -35.2659 -18.0351 -71.5185
rradius 32.2681
rwrist 3.38176
rhand -16.5411 10.2871
rfingers 7.12502
rthumb 9.6781 -19.4706
lclavicle -7.99239e-014 1.35174e-014
lhumerus -42.1539 27.8801 67.1923
lradius 25.1409
lwrist -10.7426
lhand -22.4128 25.3911
lfingers 7.12502
lthumb 4.01014 55.3331
rfemur 2.44131 -1.53231 12.6696
rtibia 27.9859
rfoot -16.4427 -17.4048
rtoes -6.60213
lfemur -5.35774 -2.58842 -7.82229
ltibia 15.8293
lfoot 5.80836 10.3811
ltoes -19.6441
272
root -6.99832 17.6879 4.37337 -5.71109 -33.0999 2.12599
lowerback 11.2896 3.08881 1.65993
upperback 1.25653 4.27342 -0.320473
thorax -4.8561 2.0667 -1.91353
lowerneck -17.1816 3.22482 -8.76308
upperneck 41.0887 6.47708 3.77586
head 17.652 1.64898 4.51684
rclavicle 1.45846e-013 -1.51076e-014
rhumerus -35.4387 -18.0193 -71.5048
rradius 32.483
rwrist 3.19535
rhand -16.6248 10.1217
rfingers 7.12502
rthumb 9.59736 -19.6397
lclavicle 1.45846e-013 -1.51076e-014
lhumerus -42.031 27.7139 67.4768
lradius 25.2284
lwrist -10.5811
lhand -22.4665 24.9576
lfingers 7.12502
lthumb 3.95825 54.9005
rfemur 2.5954 -1.54202 12.1805
rtibia 28.1466
rfoot -16.2922 -17.8259
rtoes -7.65312
lfemur -5.35804 -2.15223 -8.42295
ltibia 15.5782
lfoot 5.14616 10.6034
ltoes -17.9343
273
root -6.94303 17.6733 4.47208 -5.79246 -32.6942 2.43792
lowerback 11.1553 3.10339 1.46044
upperback 1.18778 4.26445 -0.391478
thorax -4.86308 2.06561 -1.86911
lowerneck -17.1081 3.17345 -8.96066
upperneck 41.1805 6.37419 4.00418
head 17.6715 1.60698 4.64133
rclavicle 1.27346e-014 -5.56597e-015
rhumerus -35.5498 -18.0699 -71.4288
rradius 32.5787
rwrist 3.20835
rhand -16.4525 9.92664
rfingers 7.12502
rthumb 9.76356 -19.827
lclavicle 1.27346e-014 -5.56597e-015
lhumerus -41.915 27.4338 67.8364
lradius 25.377
lwrist -10.2747
lhand -22.377 24.7477
lfingers 7.12502
lthumb 4.04477 54.6891
rfemur 2.77986 -1.293 11.5887
rtibia 28.2875
rfoot -16.2936 -18.1706
rtoes -7.63097
lfemur -5.38056 -1.43122 -9.16754
ltibia 15.4588
lfoot 3.92526 10.9637
ltoes -13.4374
274
root -6.8875 17.6626 4.5652 -5.76017 -32.3467 2.58332
lowerback 11.0131 3.12637 1.35988
upperback 1.17379 4.27987 -0.4268
thorax -4.8028 2.07621 -1.84345
lowerneck -17.299 3.18514 -8.91378
upperneck 41.3422 6.37165 4.10591
head 17.8098 1.61665 4.70126
rclavicle -1.06027e-013 1.43125e-014
rhumerus -35.5946 -17.9821 -71.5061
rradius 32.7626
rwrist 3.14735
rhand -16.6006 9.70441
rfingers 7.12502
rthumb 9.6207 -20.0559
lclavicle -1.06027e-013 1.43125e-014
lhumerus -41.7169 27.0011 68.3353
lradius 25.7477
lwrist -9.72484
lhand -22.3072 25.049
lfingers 7.12502
lthumb 4.11209 54.989
rfemur 2.8946 -0.871111 11.2186
rtibia 28.4388
rfoot -16.3287 -18.5326
rtoes -6.95214
lfemur -5.4619 -0.462045 -9.77413
ltibia 15.4045
lfoot 3.25216 10.5339
ltoes -12.344
275
root -6.83042 17.6585 4.65452 -5.77893 -31.9303 2.85064
lowerback 10.9468 3.14765 1.13341
upperback 1.11566 4.27753 -0.499327
thorax -4.83794 2.07835 -1.7905
lowerneck -17.4488 3.19579 -8.75654
upperneck 41.4655 6.37874 4.06682
head 17.93 1.62977 4.67438
rclavicle 8.88567e-014 -4.57205e-015
rhumerus -35.7457 -17.7862 -71.6328
rradius 33.0457
rwrist 3.07617
rhand -16.791 9.56499
rfingers 7.12502
rthumb 9.43704 -20.2037
lclavicle 8.88567e-014 -4.57205e-015
lhumerus -41.6031 26.6687 68.7116
lradius 26.2104
lwrist -9.27697
lhand -22.2914 25.1312
lfingers 7.12502
lthumb 4.12735 55.071
rfemur 2.96833 -0.551875 10.729
rtibia 28.5721
rfoot -16.1869 -18.984
rtoes -6.64063
lfemur -5.62908 0.513849 -10.5243
ltibia 15.5011
lfoot 2.91745 9.65732
ltoes -13.0796
276
root -6.76986 17.6564 4.74423 -5.7887 -31.3496 3.05189
lowerback 10.9589 3.11835 1.00413
upperback 1.00485 4.22237 -0.546259
thorax -4.96855 2.05117 -1.76467
lowerneck -17.3396 3.18562 -8.78266
upperneck 41.5104 6.34035 4.13124
head 17.9254 1.62089 4.70075
rclavicle -4.22169e-014 5.56597e-015
rhumerus -35.99 -17.5428 -71.6574
rradius 33.3494
rwrist 2.77271
rhand -16.8403 9.40001
rfingers 7.12502
rthumb 9.38945 -20.3709
lclavicle -4.22169e-014 5.56597e-015
lhumerus -41.5791 26.546 68.923
lradius 26.5599
lwrist -9.04319
lhand -22.2846 24.7166
lfingers 7.12502
lthumb 4.13395 54.6562
rfemur 3.10522 -0.397245 10.2918
rtibia 28.7015
rfoot -15.876 -19.5708
rtoes -6.68377
lfemur -5.87928 1.15457 -11.2173
ltibia 15.7454
lfoot 2.36996 8.94822
ltoes -12.1157
277
root -6.70721 17.6564 4.8326 -5.68676 -30.6623 3.05813
lowerback 10.961 3.0139 1.07132
upperback 0.902464 4.09352 -0.546675
thorax -5.07676 1.98449 -1.788
lowerneck -17.177 3.1796 -8.94659
upperneck 41.4895 6.33543 4.23098
head 17.8568 1.61463 4.76559
rclavicle -5.49391e-014 1.78906e-014
rhumerus -36.1857 -17.2668 -71.716
rradius 33.6502
rwrist 2.5281
rhand -16.908 9.30742
rfingers 7.12502
rthumb 9.32407 -20.4664
lclavicle -5.49391e-014 1.78906e-014
lhumerus -41.4848 26.315 69.2585
lradius 26.827
lwrist -8.67148
lhand -22.528 24.6709
lfingers 7.12502
lthumb 3.89894 54.615
rfemur 3.219 -0.227731 10.0873
rtibia 28.8697
rfoot -15.5109 -20.3269
rtoes -6.20939
lfemur -6.2006 1.62722 -11.7296
ltibia 16.0311
lfoot 1.96789 8.12175
ltoes -12.7144
278
root -6.64307 17.6569 4.92002 -5.71291 -29.9265 3.19129
lowerback 11.0486 2.90716 1.006
upperback 0.831069 3.94438 -0.564871
thorax -5.20879 1.91003 -1.75668
lowerneck -17.0474 3.18026 -9.00826
upperneck 41.4475 6.36392 4.19516
head 17.7958 1.61884 4.75593
rclavicle 3.76573e-014 -1.59028e-015
rhumerus -36.4019 -17.1394 -71.7367
rradius 33.9426
rwrist 2.59414
rhand -16.8845 9.35702
rfingers 7.12502
rthumb 9.34675 -20.4158
lclavicle 3.76573e-014 -1.59028e-015
lhumerus -41.3183 25.8748 69.7639
lradius 27.0939
lwrist -8.28385
lhand -22.7408 24.8283
lfingers 7.12502
lthumb 3.69343 54.776
rfemur 3.371 -0.273955 9.67356
rtibia 29.1018
rfoot -15.223 -20.7812
rtoes -5.49158
lfemur -6.46047 1.91938 -12.3414
ltibia 16.3772
lfoot 1.70496 7.17377
ltoes -14.8277
